<?xml version="1.0" encoding="utf-8"?>
<!-- Generator: Adobe Illustrator 24.3.0, SVG Export Plug-In . SVG Version: 6.00 Build 0)  -->
<svg version="1.1" id="Layer_1" xmlns="http://www.w3.org/2000/svg" xmlns:xlink="http://www.w3.org/1999/xlink" x="0px" y="0px"
	 viewBox="0 0 259.12 262.3" style="enable-background:new 0 0 259.12 262.3;" xml:space="preserve">
<style type="text/css">
	.st0{fill:#5D4954;}
	.st1{fill:#E2E2E2;}
	.st2{font-family:'ComicSansMS';}
	.st3{font-size:81.6577px;}
	.st4{font-size:11px;}
	.st5{font-size:18px;}
</style>
<path class="st0" d="M134.19,106.39c0.65-0.02,1.18-0.49,1.29-1.13c1.46-8.4,11.15-63.66,13.97-65.15
	c0.95-0.5,1.69,38.51,3.57,55.17c1.65,14.64,16.39-0.34,18.58-1.79c13.87-9.18,28.92-0.48,32.7,11.01c0.83,2.51-0.25,2.8,2.12,2.72
	c10.82-0.35,16.5,3.93,16.19,4.39c-0.3,0.45-31.09-3.38-43.91,8.63c-10.34,9.69-3.77,21.58-9,31.76
	c-8.52,16.56-22.86,19-29.33,19.35c-7.07,0.37-11.47,0.16-16.81,10.63c-4.18,8.2-29.73,35.95-29.61,35.23l4.79-10.61
	c0.1-0.6-42.33,25.53-41.72,25.1c31.96-23.08,22.96-47.03,42.76-63.54c7.34-6.12,8.2-13.44,7.46-18.71
	c-0.43-3.05-1.8-5.88-3.82-8.19c-8.87-10.16-41.82-49.98-55.75-96.34l23.32,20.07C80.29,73,88.92,81.75,97.21,90.81
	C111.21,106.13,129.54,106.55,134.19,106.39z"/>
<text transform="matrix(1 0 0 1 106.0702 169.1622)" class="st1 st2 st3">#</text>
<text transform="matrix(1 0 0 1 183.914 104.09)" class="st1 st2 st4">#</text>
<text transform="matrix(1 0 0 1 134.2563 144.6511)" class="st1 st2 st5">&amp;</text>
</svg>
